<svg width="100" height="100" viewBox="0 0 100 100" xmlns="http://www.w3.org/2000/svg">
  <defs>
    <filter id="glow-net">
      <feGaussianBlur stdDeviation="2.5" result="coloredBlur"/>
      <feMerge>
        <feMergeNode in="coloredBlur"/>
        <feMergeNode in="SourceGraphic"/>
      </feMerge>
    </filter>
  </defs>
  <g fill="none" stroke="#00ffcc" stroke-width="2" filter="url(#glow-net)">
    <!-- Circuit Brain Concept -->
    <path d="M50 20 C30 20 15 35 15 55 C15 75 30 90 50 90 C70 90 85 75 85 55 C85 35 70 20 50 20 Z" />
    <path d="M50 20 V 40" />
    <path d="M50 90 V 70" />
    <path d="M15 55 H 35" />
    <path d="M85 55 H 65" />
    <circle cx="50" cy="55" r="10" stroke-width="3" />
    <circle cx="50" cy="55" r="3" fill="#00ffcc" />
    <!-- Nodes -->
    <circle cx="28" cy="35" r="2" fill="#00ffcc" />
    <circle cx="72" cy="35" r="2" fill="#00ffcc" />
    <circle cx="28" cy="75" r="2" fill="#00ffcc" />
    <circle cx="72" cy="75" r="2" fill="#00ffcc" />
    <!-- Connections -->
    <path d="M35 55 L 28 35" />
    <path d="M65 55 L 72 35" />
    <path d="M35 55 L 28 75" />
    <path d="M65 55 L 72 75" />
  </g>
</svg>
